<svg xmlns="http://www.w3.org/2000/svg" viewBox="0 0 417.9 417.9"><polygon points="157.6 0 49.1 0 208.9 208.9 157.6 0" fill="#e1f7ff"/><polygon points="49.1 0 0 0 0 153.6 208.9 208.9 49.1 0" fill="#fff"/><polygon points="0 153.6 0 263.8 208.9 208.9 0 153.6" fill="#e1f7ff"/><polygon points="0 263.8 0 383.6 208.9 208.9 0 263.8" fill="#fff"/><polygon points="363.6 0 254.3 0 208.9 208.9 363.6 0" fill="#e1f7ff"/><polygon points="254.3 0 157.6 0 208.9 208.9 254.3 0" fill="#fff"/><polygon points="417.9 273.1 417.9 98.2 208.9 208.9 417.9 273.1" fill="#e1f7ff"/><polygon points="363.6 0 208.9 208.9 417.9 98.2 417.9 0 363.6 0" fill="#fff"/><polygon points="345 417.9 417.9 417.9 417.9 273.1 208.9 208.9 345 417.9" fill="#fff"/><polygon points="124.2 417.9 235.7 417.9 208.9 208.9 124.2 417.9" fill="#fff"/><polygon points="0 383.6 0 417.9 124.2 417.9 208.9 208.9 0 383.6" fill="#e1f7ff"/><polygon points="235.7 417.9 417.9 417.9 208.9 208.9 235.7 417.9" fill="#e1f7ff"/><path d="M257.2,303.3l-0.6-.5h-0.3c-23.5,15.7-46.8,16.2-70.3,1.3a1.2,1.2,0,0,0-.7.8,47.6,47.6,0,0,1-13.1,13.2,59.4,59.4,0,0,1-91.6-32c-1.9-6.4-1.8-13.5-2-20.3-0.1-2.9-1.6-3.2-3.5-3.9-16.4-6.2-28.1-17.4-34.6-33.6A59.4,59.4,0,0,1,81.8,148c7-1.7,14.3-2.8,21.4-.9,3.3,0.9,4-.9,5.1-3.2,7.8-16.7,20.6-27.7,38.3-32.7s34.2-1.8,49.5,8.2c30.5-40.3,91.6-28.8,106.3,17.5,16.8-7.3,33.6-7.5,50.2.3,12.5,5.9,21.5,15.4,27.8,27.8,11.9,23.4,6.8,64.5-29.6,81.3l3.4-.6c6.2,18.4-1,47.9-25.2,63.5S274.7,320.1,257.2,303.3Z" fill="#0174d9"/><path d="M149.6,202.6s-6.1,4.1-16.3,4.1c-16.1,0-25.3-11.2-25.3-26.3s9.5-26.3,26.5-26.3a42.9,42.9,0,0,1,14.5,2.5l-1.4,7.7s-7.4-2.3-13.1-2.3c-11.4,0-17.9,6.6-17.9,18.5s7.2,18.5,17,18.5a34.3,34.3,0,0,0,13.7-3.4Z" fill="#fff"/><path d="M156.9,153.3h8.3v39.4c0,3.8.8,5.4,4.3,5.4v7.7c-9.9,0-12.6-2.3-12.6-12.2V153.3Z" fill="#fff"/><path d="M193.7,206.3c-10.5,0-18.2-7.7-18.2-18.4s7.1-16.4,13.2-17.8l1.6,7.2c-3,1-6.6,4.1-6.6,10.6s4.8,11.2,10,11.2v7.2Zm-0.2-36.8c10.4,0,18.2,7.7,18.2,18.4s-6.9,16.2-13.2,17.8l-1.5-7.1c2.9-1,6.6-4.1,6.6-10.7s-4.8-11.2-10-11.2v-7.2Z" fill="#fff"/><path d="M228.2,193.9c0,3.8,1.4,4.7,4.9,4.7a10.7,10.7,0,0,0,4.2-1.2l1.7,5.9s-3.7,3-7.4,3c-5.9,0-11.7-3.6-11.7-11.7V170.6h8.3v23.2Zm13.5-23.2H250v34.5h-8.3V170.6Z" fill="#fff"/><path d="M279,204.1s-3.5,2.2-6.6,2.2c-7.4,0-13.5-5.6-13.5-17.3s7.7-19.5,18-19.5h1.7l-0.6,7.1h-1.2c-6.1,0-9.7,4.1-9.7,11.5s2.8,10.6,6.6,10.6a12.9,12.9,0,0,0,3.7-.8Zm2.4-50.8h8.3v51.8h-8.3V153.3Z" fill="#fff"/><path d="M112.8,219.3h15.4c9.5,0,16.7,5.3,16.7,14.8s-6.9,15.4-16.7,15.4h-3.7v-6.8h3.7c5.9,0,8.3-3.6,8.3-8.6s-2.4-8-8.3-8H112.8v-6.8Zm0,10.3h8.3v39.4h-8.3V229.5Z" fill="#fff"/><path d="M153.7,244.6l-4.2-7.4,6.3-4,6.2,8.1v27.5h-8.3V244.6Zm9.5-8.4a16.9,16.9,0,0,1,10.1-3V241a18.5,18.5,0,0,0-7.6,1.3Z" fill="#fff"/><path d="M194.2,270.1c-10.5,0-18.2-7.7-18.2-18.4s7.1-16.4,13.2-17.8l1.6,7.2c-3,1-6.6,4.1-6.6,10.6s4.8,11.2,10,11.2v7.2ZM194,233.3c10.4,0,18.2,7.7,18.2,18.4s-6.9,16.2-13.2,17.8l-1.5-7.1c2.9-1,6.6-4.1,6.6-10.7s-4.8-11.2-10-11.2v-7.2Z" fill="#fff"/><path d="M214.2,278.9c5.7,0,7.2-2.1,7.2-7.9V234.4h8.3v36.9c0,9.4-2.9,15.3-15.6,15.3v-7.7Zm11.5-60.5a4.4,4.4,0,0,1,4.7,4.5c0,2.6-1.9,4.3-4.7,4.3s-4.8-1.8-4.8-4.3S222.9,218.4,225.7,218.4Z" fill="#fff"/><path d="M249.5,249.5l11.1-1.7v-0.4c0-4.9-2-7.5-6.1-7.5s-8.1,2.3-8.1,12.4c0,7.7,3.1,10.8,9.4,10.8a35.5,35.5,0,0,0,10.7-2.1l1.3,6.1s-4.6,3-13,3c-10.6,0-16.3-7.3-16.3-17.8,0-12.6,7.6-19,16.1-19s13.7,5.2,13.7,14.1a23.7,23.7,0,0,1-.7,5.7l-17.2,1.9Z" fill="#fff"/><path d="M302.1,267.7a23.1,23.1,0,0,1-10.3,2.4c-10.6,0-17.4-7.2-17.4-17.8s6.7-19,18.4-19a27.4,27.4,0,0,1,7.9,1.2l-0.6,7.2a45.4,45.4,0,0,0-7.3-.8c-6.8,0-9.8,4-9.8,11.4s4.1,10.2,9.5,10.2a33,33,0,0,0,7.9-1.4Z" fill="#fff"/><path d="M305.9,234.4H312l0.6-9h7.4v9h12.1v7H305.9v-7Zm5.8,10.4h8.3v12.5c0,4.3.6,5.2,2.8,5.2a61.2,61.2,0,0,0,8.5-1.1l0.8,6.1s-6.8,2.5-11.3,2.5c-7.1,0-9.2-3.3-9.2-11.8V244.8Z" fill="#fff"/></svg>